PathFileType        4      (X/Y/Z)      C:\Users\u0101727\OneDrive - KU Leuven\reference_data\TRC\gait_63.trc         																																																																																																																																																																																		
DataRate	CameraRate	NumFrames	NumMarkers	Units	OrigDataRate	OrigDataStartFrame	OrigNumFrames																																																																																																																																																																											
100	100	8	59	m	100	391	520																																																																																																																																																																											
Frame#	Time	LPSI			RPSI			LKNE			LTHI1			LTHI2			LTHI3			LANK			LTIB1			LTIB2			LTIB3			foot_l3			foot_l4			foot_l6			RANK_med			RTIB2			RTIB3			Foot_r2			Foot_r3			Foot_r5			Foot_r6			Foot_r7			Foot_r8			Foot_r9			Foot_r10			RSHO			LSHO			hum_l2			LELB			rad_l2			LW2			LH			hum_r2			RELB			rad_r2			foot_l2			foot_l7			foot_l1			foot_l5			RANK			RTHI3			Foot_r1			RW1			RH			foot_l9			foot_l8			foot_l10			LANK_med			RW2			RASI			Foot_r4			RTHI1			CLAV			RKNE			RTHI2			RTIB1			LW1			RKNE_med			LKNE_med			LASI		
		X1	Y1	Z1	X2	Y2	Z2	X3	Y3	Z3	X4	Y4	Z4	X5	Y5	Z5	X6	Y6	Z6	X7	Y7	Z7	X8	Y8	Z8	X9	Y9	Z9	X10	Y10	Z10	X11	Y11	Z11	X12	Y12	Z12	X13	Y13	Z13	X14	Y14	Z14	X15	Y15	Z15	X16	Y16	Z16	X17	Y17	Z17	X18	Y18	Z18	X19	Y19	Z19	X20	Y20	Z20	X21	Y21	Z21	X22	Y22	Z22	X23	Y23	Z23	X24	Y24	Z24	X25	Y25	Z25	X26	Y26	Z26	X27	Y27	Z27	X28	Y28	Z28	X29	Y29	Z29	X30	Y30	Z30	X31	Y31	Z31	X32	Y32	Z32	X33	Y33	Z33	X34	Y34	Z34	X35	Y35	Z35	X36	Y36	Z36	X37	Y37	Z37	X38	Y38	Z38	X39	Y39	Z39	X40	Y40	Z40	X41	Y41	Z41	X42	Y42	Z42	X43	Y43	Z43	X44	Y44	Z44	X45	Y45	Z45	X46	Y46	Z46	X47	Y47	Z47	X48	Y48	Z48	X49	Y49	Z49	X50	Y50	Z50	X51	Y51	Z51	X52	Y52	Z52	X53	Y53	Z53	X54	Y54	Z54	X55	Y55	Z55	X56	Y56	Z56	X57	Y57	Z57	X58	Y58	Z58	X59	Y59	Z59
391	3.91	3.2895	0.93486	0.34088	NaN	NaN	NaN	3.3492	0.41601	0.20831	NaN	NaN	NaN	3.3887	0.6399	0.14646	NaN	NaN	NaN	3.1262	0.085962	0.22834	NaN	NaN	NaN	3.2054	0.26458	0.18632	NaN	NaN	NaN	NaN	NaN	NaN	3.1498	0.03865	0.23207	NaN	NaN	NaN	3.683	0.087313	0.39	NaN	NaN	NaN	NaN	NaN	NaN	3.6648	0.0235	0.46581	NaN	NaN	NaN	NaN	NaN	NaN	NaN	NaN	NaN	NaN	NaN	NaN	NaN	NaN	NaN	NaN	NaN	NaN	3.6993	0.058473	0.38841	3.4135	1.362	0.49461	3.2968	1.3485	0.1634	3.2593	1.1912	0.12906	3.2289	1.0203	0.13888	3.3203	0.95953	0.081824	3.3727	0.85365	0.048855	3.4362	0.83367	0.022242	3.3933	1.2135	0.54436	3.3655	1.0688	0.58005	3.4572	0.94285	0.60841	3.0449	0.058358	0.26133	NaN	NaN	NaN	3.0586	0.089614	0.26345	NaN	NaN	NaN	NaN	NaN	NaN	NaN	NaN	NaN	NaN	NaN	NaN	NaN	NaN	NaN	NaN	NaN	NaN	NaN	NaN	NaN	NaN	NaN	NaN	NaN	NaN	NaN	NaN	NaN	NaN	NaN	NaN	NaN	NaN	NaN	NaN	NaN	NaN	NaN	NaN	NaN	NaN	NaN	NaN	NaN	NaN	NaN	NaN	NaN	NaN	NaN	NaN	NaN	NaN	NaN	NaN	NaN	NaN	NaN	NaN	NaN	NaN	NaN	NaN	NaN	NaN
392	3.92	3.301	0.93399	0.34405	NaN	NaN	NaN	3.3575	0.4135	0.2087	NaN	NaN	NaN	3.3964	0.63783	0.14727	NaN	NaN	NaN	3.128	0.088522	0.22947	NaN	NaN	NaN	3.2107	0.26503	0.18752	NaN	NaN	NaN	NaN	NaN	NaN	3.1502	0.040919	0.23273	NaN	NaN	NaN	3.6879	0.0867	0.38937	NaN	NaN	NaN	NaN	NaN	NaN	3.668	0.025537	0.46682	NaN	NaN	NaN	NaN	NaN	NaN	NaN	NaN	NaN	NaN	NaN	NaN	NaN	NaN	NaN	NaN	NaN	NaN	3.7023	0.057689	0.38768	3.4278	1.3612	0.49484	3.3059	1.3462	0.16489	3.268	1.1886	0.13209	NaN	NaN	NaN	3.3268	0.95626	0.084697	3.3771	0.85048	0.053128	3.4401	0.82912	0.023493	3.4084	1.2126	0.54521	3.3821	1.0675	0.58145	3.4741	0.94164	0.60793	3.046	0.062646	0.26279	NaN	NaN	NaN	3.0601	0.093913	0.26513	NaN	NaN	NaN	NaN	NaN	NaN	NaN	NaN	NaN	NaN	NaN	NaN	NaN	NaN	NaN	NaN	NaN	NaN	NaN	NaN	NaN	NaN	NaN	NaN	NaN	NaN	NaN	NaN	NaN	NaN	NaN	NaN	NaN	NaN	NaN	NaN	NaN	NaN	NaN	NaN	NaN	NaN	NaN	NaN	NaN	NaN	NaN	NaN	NaN	NaN	NaN	NaN	NaN	NaN	NaN	NaN	NaN	NaN	NaN	NaN	NaN	NaN	NaN	NaN	NaN	NaN
393	3.93	3.3114	0.93304	0.3466	NaN	NaN	NaN	3.3661	0.41129	0.20919	NaN	NaN	NaN	3.404	0.63578	0.14817	NaN	NaN	NaN	3.1298	0.091564	0.2309	NaN	NaN	NaN	3.2171	0.26567	0.18899	NaN	NaN	NaN	NaN	NaN	NaN	3.1507	0.043695	0.23393	NaN	NaN	NaN	3.693	0.086449	0.38907	NaN	NaN	NaN	NaN	NaN	NaN	3.6708	0.027085	0.46712	NaN	NaN	NaN	NaN	NaN	NaN	NaN	NaN	NaN	NaN	NaN	NaN	NaN	NaN	NaN	NaN	NaN	NaN	3.7059	0.056465	0.38761	3.4421	1.3608	0.49462	3.3157	1.3446	0.16633	3.2768	1.1864	0.13534	NaN	NaN	NaN	3.3328	0.95274	0.088029	3.3801	0.84692	0.054835	3.4438	0.8246	0.02499	3.4239	1.2119	0.54559	3.3991	1.0669	0.58296	3.4909	0.9406	0.6071	3.048	0.067069	0.26571	NaN	NaN	NaN	3.0611	0.099062	0.26748	NaN	NaN	NaN	NaN	NaN	NaN	NaN	NaN	NaN	NaN	NaN	NaN	NaN	NaN	NaN	NaN	NaN	NaN	NaN	NaN	NaN	NaN	NaN	NaN	NaN	NaN	NaN	NaN	NaN	NaN	NaN	NaN	NaN	NaN	NaN	NaN	NaN	NaN	NaN	NaN	NaN	NaN	NaN	NaN	NaN	NaN	NaN	NaN	NaN	NaN	NaN	NaN	NaN	NaN	NaN	NaN	NaN	NaN	NaN	NaN	NaN	NaN	NaN	NaN	NaN	NaN
394	3.94	3.3219	0.93215	0.34863	NaN	NaN	NaN	3.3748	0.40935	0.20963	NaN	NaN	NaN	3.4121	0.63414	0.14949	NaN	NaN	NaN	3.1315	0.094801	0.23292	NaN	NaN	NaN	3.2235	0.26672	0.19035	NaN	NaN	NaN	NaN	NaN	NaN	3.1516	0.047102	0.23513	NaN	NaN	NaN	3.6961	0.085792	0.38794	NaN	NaN	NaN	NaN	NaN	NaN	3.6731	0.028229	0.46733	NaN	NaN	NaN	NaN	NaN	NaN	NaN	NaN	NaN	NaN	NaN	NaN	NaN	NaN	NaN	NaN	NaN	NaN	3.7085	0.055373	0.3871	3.4561	1.3607	0.49426	3.3248	1.3434	0.16792	3.2857	1.1847	0.13846	NaN	NaN	NaN	3.3389	0.94956	0.091115	3.384	0.84263	0.058241	3.4458	0.81935	0.026664	3.4402	1.212	0.54554	3.416	1.0664	0.58379	3.5081	0.93999	0.60592	3.0493	0.072274	0.26858	NaN	NaN	NaN	3.0644	0.10321	0.27051	NaN	NaN	NaN	NaN	NaN	NaN	NaN	NaN	NaN	NaN	NaN	NaN	NaN	NaN	NaN	NaN	NaN	NaN	NaN	NaN	NaN	NaN	NaN	NaN	NaN	NaN	NaN	NaN	NaN	NaN	NaN	NaN	NaN	NaN	NaN	NaN	NaN	NaN	NaN	NaN	NaN	NaN	NaN	NaN	NaN	NaN	NaN	NaN	NaN	NaN	NaN	NaN	NaN	NaN	NaN	NaN	NaN	NaN	NaN	NaN	NaN	NaN	NaN	NaN	NaN	NaN
395	3.95	3.3319	0.93145	0.35072	NaN	NaN	NaN	3.3834	0.40781	0.20991	NaN	NaN	NaN	3.4202	0.63306	0.15086	NaN	NaN	NaN	3.1329	0.098172	0.23524	NaN	NaN	NaN	3.2298	0.26823	0.19193	NaN	NaN	NaN	NaN	NaN	NaN	3.1526	0.050672	0.23676	NaN	NaN	NaN	3.6975	0.085833	0.38721	NaN	NaN	NaN	NaN	NaN	NaN	3.6738	0.029153	0.46699	NaN	NaN	NaN	NaN	NaN	NaN	NaN	NaN	NaN	NaN	NaN	NaN	NaN	NaN	NaN	NaN	NaN	NaN	3.7093	0.054929	0.38641	3.4701	1.3611	0.49336	3.334	1.3426	0.16934	3.2946	1.184	0.14165	NaN	NaN	NaN	3.3448	0.9468	0.09437	3.3879	0.83857	0.062017	3.4475	0.81429	0.028963	3.4563	1.2125	0.5454	3.4339	1.0669	0.58425	3.5252	0.93972	0.60431	3.0509	0.078003	0.27212	NaN	NaN	NaN	3.0672	0.1082	0.274	NaN	NaN	NaN	NaN	NaN	NaN	NaN	NaN	NaN	NaN	NaN	NaN	NaN	NaN	NaN	NaN	NaN	NaN	NaN	NaN	NaN	NaN	NaN	NaN	NaN	NaN	NaN	NaN	NaN	NaN	NaN	NaN	NaN	NaN	NaN	NaN	NaN	NaN	NaN	NaN	NaN	NaN	NaN	NaN	NaN	NaN	NaN	NaN	NaN	NaN	NaN	NaN	NaN	NaN	NaN	NaN	NaN	NaN	NaN	NaN	NaN	NaN	NaN	NaN	NaN	NaN
396	3.96	3.3412	0.93166	0.35269	NaN	NaN	NaN	3.3916	0.40643	0.21001	NaN	NaN	NaN	3.4285	0.63206	0.15203	NaN	NaN	NaN	3.1354	0.10243	0.23802	NaN	NaN	NaN	3.2353	0.26986	0.19383	NaN	NaN	NaN	NaN	NaN	NaN	3.1536	0.05463	0.23887	NaN	NaN	NaN	3.6978	0.085915	0.38649	NaN	NaN	NaN	NaN	NaN	NaN	3.6751	0.030066	0.46717	NaN	NaN	NaN	NaN	NaN	NaN	NaN	NaN	NaN	NaN	NaN	NaN	NaN	NaN	NaN	NaN	NaN	NaN	3.709	0.054608	0.3855	3.4841	1.3616	0.49207	3.343	1.3424	0.17035	3.3023	1.1835	0.14462	NaN	NaN	NaN	3.3502	0.94417	0.097775	3.3903	0.83461	0.06586	3.4488	0.80921	0.031322	3.471	1.2127	0.54511	3.4503	1.067	0.58437	3.5433	0.94052	0.6022	3.0538	0.083701	0.27639	NaN	NaN	NaN	3.0703	0.1135	0.27792	NaN	NaN	NaN	NaN	NaN	NaN	NaN	NaN	NaN	NaN	NaN	NaN	NaN	NaN	NaN	NaN	NaN	NaN	NaN	NaN	NaN	NaN	NaN	NaN	NaN	NaN	NaN	NaN	NaN	NaN	NaN	NaN	NaN	NaN	NaN	NaN	NaN	NaN	NaN	NaN	NaN	NaN	NaN	NaN	NaN	NaN	NaN	NaN	NaN	NaN	NaN	NaN	NaN	NaN	NaN	NaN	NaN	NaN	NaN	NaN	NaN	NaN	NaN	NaN	NaN	NaN
397	3.97	3.3503	0.93173	0.3544	NaN	NaN	NaN	3.4003	0.40592	0.20998	NaN	NaN	NaN	3.4367	0.63144	0.15319	NaN	NaN	NaN	3.1381	0.10683	0.2415	NaN	NaN	NaN	3.2415	0.27169	0.19556	NaN	NaN	NaN	NaN	NaN	NaN	3.154	0.058123	0.24147	NaN	NaN	NaN	3.6978	0.085615	0.38505	NaN	NaN	NaN	NaN	NaN	NaN	3.6754	0.031312	0.46755	NaN	NaN	NaN	NaN	NaN	NaN	NaN	NaN	NaN	NaN	NaN	NaN	NaN	NaN	NaN	NaN	NaN	NaN	3.7082	0.054072	0.38395	3.4981	1.3625	0.49068	3.3519	1.3425	0.17169	3.3093	1.1833	0.14735	NaN	NaN	NaN	3.3557	0.94222	0.10149	3.3923	0.83133	0.069692	3.449	0.80415	0.034308	3.4866	1.2139	0.54435	3.4674	1.068	0.58437	3.5607	0.94126	0.59969	3.0567	0.089659	0.28119	NaN	NaN	NaN	3.0739	0.11903	0.28284	NaN	NaN	NaN	NaN	NaN	NaN	NaN	NaN	NaN	NaN	NaN	NaN	NaN	NaN	NaN	NaN	NaN	NaN	NaN	NaN	NaN	NaN	NaN	NaN	NaN	NaN	NaN	NaN	NaN	NaN	NaN	NaN	NaN	NaN	NaN	NaN	NaN	NaN	NaN	NaN	NaN	NaN	NaN	NaN	NaN	NaN	NaN	NaN	NaN	NaN	NaN	NaN	NaN	NaN	NaN	NaN	NaN	NaN	NaN	NaN	NaN	NaN	NaN	NaN	NaN	NaN
398	3.98	3.3609	0.93132	0.3568	NaN	NaN	NaN	3.408	0.40528	0.2096	NaN	NaN	NaN	3.4445	0.63094	0.15405	NaN	NaN	NaN	3.1403	0.11085	0.24527	NaN	NaN	NaN	3.2465	0.27406	0.19828	NaN	NaN	NaN	NaN	NaN	NaN	3.155	0.062108	0.24445	NaN	NaN	NaN	3.6985	0.085441	0.38308	NaN	NaN	NaN	NaN	NaN	NaN	3.6759	0.032411	0.46595	NaN	NaN	NaN	NaN	NaN	NaN	NaN	NaN	NaN	NaN	NaN	NaN	NaN	NaN	NaN	NaN	NaN	NaN	3.7091	0.052646	0.38278	3.5121	1.3629	0.48889	3.3605	1.3428	0.17271	3.3174	1.1839	0.14965	NaN	NaN	NaN	3.3607	0.9406	0.10539	3.3931	0.82816	0.073822	3.4486	0.79919	0.037793	3.5011	1.2148	0.54362	3.4841	1.0691	0.5842	3.5763	0.94168	0.59722	3.0596	0.095558	0.28737	NaN	NaN	NaN	3.0777	0.12462	0.28842	NaN	NaN	NaN	NaN	NaN	NaN	NaN	NaN	NaN	NaN	NaN	NaN	NaN	NaN	NaN	NaN	NaN	NaN	NaN	NaN	NaN	NaN	NaN	NaN	NaN	NaN	NaN	NaN	NaN	NaN	NaN	NaN	NaN	NaN	NaN	NaN	NaN	NaN	NaN	NaN	NaN	NaN	NaN	NaN	NaN	NaN	NaN	NaN	NaN	NaN	NaN	NaN	NaN	NaN	NaN	NaN	NaN	NaN	NaN	NaN	NaN	NaN	NaN	NaN	NaN	NaN
